<?xml version="1.0" encoding="UTF-8" standalone="no"?>
<svg
   xmlns:dc="http://purl.org/dc/elements/1.1/"
   xmlns:cc="http://creativecommons.org/ns#"
   xmlns:rdf="http://www.w3.org/1999/02/22-rdf-syntax-ns#"
   xmlns:svg="http://www.w3.org/2000/svg"
   xmlns="http://www.w3.org/2000/svg"
   xmlns:sodipodi="http://sodipodi.sourceforge.net/DTD/sodipodi-0.dtd"
   xmlns:inkscape="http://www.inkscape.org/namespaces/inkscape"
   version="1.1"
   id="Layer_1"
   x="0px"
   y="0px"
   viewBox="0 0 300 300"
   xml:space="preserve"
   sodipodi:docname="icon-dc-power.svg"
   inkscape:version="0.92.2 (5c3e80d, 2017-08-06)"
   width="300"
   height="300"
   inkscape:export-filename="/home/lundmar/projects/dc-power-supply/dc-power-supply/images/dc-power.png"
   inkscape:export-xdpi="160"
   inkscape:export-ydpi="160"><metadata
     id="metadata43"><rdf:RDF><cc:Work
         rdf:about=""><dc:format>image/svg+xml</dc:format><dc:type
           rdf:resource="http://purl.org/dc/dcmitype/StillImage" /><dc:title /></cc:Work></rdf:RDF></metadata><defs
     id="defs41" /><sodipodi:namedview
     pagecolor="#ffffff"
     bordercolor="#666666"
     borderopacity="1"
     objecttolerance="10"
     gridtolerance="10"
     guidetolerance="10"
     inkscape:pageopacity="0"
     inkscape:pageshadow="2"
     inkscape:window-width="1920"
     inkscape:window-height="1052"
     id="namedview39"
     showgrid="false"
     inkscape:zoom="1.84375"
     inkscape:cx="-89.542701"
     inkscape:cy="125.95864"
     inkscape:window-x="0"
     inkscape:window-y="0"
     inkscape:window-maximized="1"
     inkscape:current-layer="Layer_1" /><g
     id="g8"
     transform="translate(-106,-106)" /><g
     id="g10"
     transform="translate(-106,-106)" /><g
     id="g12"
     transform="translate(-106,-106)" /><g
     id="g14"
     transform="translate(-106,-106)" /><g
     id="g16"
     transform="translate(-106,-106)" /><g
     id="g18"
     transform="translate(-106,-106)" /><g
     id="g20"
     transform="translate(-106,-106)" /><g
     id="g22"
     transform="translate(-106,-106)" /><g
     id="g24"
     transform="translate(-106,-106)" /><g
     id="g26"
     transform="translate(-106,-106)" /><g
     id="g28"
     transform="translate(-106,-106)" /><g
     id="g30"
     transform="translate(-106,-106)" /><g
     id="g32"
     transform="translate(-106,-106)" /><g
     id="g34"
     transform="translate(-106,-106)" /><g
     id="g36"
     transform="translate(-106,-106)" /><rect
     style="fill:#000000;fill-opacity:1;fill-rule:nonzero;stroke:#585e66;stroke-width:0;stroke-linecap:butt;stroke-linejoin:round;stroke-miterlimit:4;stroke-dasharray:none;stroke-opacity:1"
     id="rect4539"
     width="300"
     height="300"
     x="5e-07"
     y="5e-07"
     ry="62.198059" /><g
     id="g6"
     transform="matrix(0.38540074,0,0,0.38540074,51.337366,51.337603)"
     style="fill:#ffdd55;fill-opacity:1"><g
       id="g4"
       style="fill:#ffdd55;fill-opacity:1"><path
         d="m 400.268,175.599 c -1.399,-3.004 -4.412,-4.932 -7.731,-4.932 H 291.417 L 391.214,13.099 c 1.664,-2.628 1.766,-5.956 0.265,-8.678 C 389.977,1.69 387.109,0 384.003,0 H 247.47 c -3.234,0 -6.187,1.826 -7.637,4.719 l -128,256 c -1.323,2.637 -1.178,5.777 0.375,8.294 1.562,2.517 4.301,4.053 7.262,4.053 h 87.748 l -95.616,227.089 c -1.63,3.883 -0.179,8.388 3.413,10.59 1.382,0.845 2.918,1.254 4.446,1.254 2.449,0 4.864,-1.05 6.537,-3.029 L 399.065,184.703 c 2.141,-2.542 2.602,-6.092 1.203,-9.104 z"
         id="path2"
         inkscape:connector-curvature="0"
         style="fill:#ffdd55;fill-opacity:1" /></g></g></svg>