<svg version="1.2" baseProfile="tiny" id="Layer_1" xmlns="http://www.w3.org/2000/svg" xmlns:xlink="http://www.w3.org/1999/xlink" x="0px" y="0px" viewBox="0 0 172.238 180.994" xml:space="preserve">                <path id="gear" fill="#0099B0" d="M152.336,57.604l-16.439-3.057c-0.4-0.075-0.838-0.451-0.973-0.837l-5.039-11.756                    c-0.188-0.363-0.152-0.933,0.08-1.271l9.578-13.96c0.229-0.336,0.184-0.847-0.105-1.136l-11.963-11.963                    c-0.289-0.289-0.799-0.336-1.135-0.105l-14.205,9.748c-0.336,0.231-0.912,0.272-1.277,0.092l-11.396-4.665                    c-0.387-0.128-0.764-0.561-0.84-0.962L95.457,0.729C95.383,0.328,94.988,0,94.58,0H77.66c-0.407,0-0.802,0.328-0.876,0.729                    L73.62,17.732c-0.076,0.401-0.452,0.834-0.84,0.962l-11.397,4.665c-0.366,0.18-0.942,0.139-1.277-0.092l-14.204-9.748                    c-0.337-0.231-0.848-0.184-1.136,0.105L32.802,25.587c-0.288,0.289-0.336,0.8-0.105,1.136l9.579,13.96                    c0.23,0.338,0.266,0.908,0.079,1.271l-5.04,11.756c-0.134,0.386-0.571,0.762-0.973,0.837l-16.438,3.057                    c-0.402,0.076-0.729,0.47-0.729,0.878l0.001,16.919c0,0.408,0.328,0.805,0.729,0.878l16.035,2.984                    c0.401,0.073,0.83,0.454,0.952,0.843l5.006,12.505c0.179,0.367,0.137,0.941-0.095,1.277l-9.108,13.273                    c-0.23,0.336-0.183,0.848,0.105,1.137l11.965,11.963c0.288,0.287,0.799,0.334,1.136,0.105l13.038-8.949                    c0.336-0.23,0.899-0.248,1.25-0.043l5.75,3.07c0.364,0.186,0.789,0.029,0.945-0.348L78.74,85.449c0.157-0.377,0-0.858-0.348-1.071                    l-1.439-0.881c-0.266-0.162-0.627-0.441-0.91-0.697c-5.191-3.324-8.635-9.139-8.635-15.761c0-10.334,8.378-18.711,18.711-18.711                    c10.333,0,18.71,8.377,18.71,18.711c0,6.622-3.443,12.437-8.635,15.761c-0.281,0.256-0.643,0.535-0.908,0.697l-1.439,0.881                    c-0.346,0.213-0.504,0.694-0.348,1.071l11.855,28.648c0.156,0.377,0.58,0.533,0.945,0.348l5.75-3.07                    c0.352-0.205,0.914-0.188,1.25,0.043l13.039,8.949c0.336,0.229,0.848,0.182,1.135-0.105l11.965-11.963                    c0.289-0.289,0.336-0.801,0.105-1.137l-9.109-13.273c-0.23-0.336-0.273-0.91-0.094-1.277l5.006-12.505                    c0.123-0.389,0.549-0.77,0.951-0.843l16.035-2.984c0.4-0.073,0.729-0.47,0.729-0.878l0.002-16.919                    C153.064,58.074,152.736,57.68,152.336,57.604"></path>                <g id="logo-text">                    <path fill-rule="evenodd" fill="#0099B0" d="M45.597,180.781h3.613v-12.254c0-4.426-3.046-5.914-7.473-5.914                        c-2.692,0-4.675,0.707-6.056,2.621l2.833,2.16c0.637-1.027,1.523-1.383,3.4-1.383c2.585,0,3.683,0.604,3.683,2.303v1.877h-4.994                        c-3.86,0-5.843,2.445-5.843,5.313c0,3.117,2.337,5.49,6.339,5.49c2.444,0,3.684-0.566,4.427-1.807h0.071V180.781z M45.597,174.476                        c0,2.799-1.027,3.117-4.037,3.117c-2.444,0-3.401-1.063-3.401-2.266c0-1.311,0.992-2.162,3.118-2.162h4.32V174.476z"></path>                    <path fill-rule="evenodd" fill="#0099B0" d="M53.178,180.781h3.612v-10.803c0-2.619,1.736-3.754,3.507-3.754                        c0.921,0,1.523,0.248,2.373,0.887l2.62-3.117c-1.098-0.85-2.301-1.381-3.754-1.381c-1.912,0-3.542,0.709-4.675,2.125H56.79v-1.912                        h-3.612V180.781z"></path>                    <path fill-rule="evenodd" fill="#0099B0" d="M76.095,180.781h3.612v-25.217h-3.612v9.174c-1.346-1.275-2.798-2.125-4.64-2.125                        c-2.196,0-3.789,0.99-4.816,2.338c-0.992,1.273-1.275,2.441-1.275,6.836c0,4.426,0.283,5.594,1.275,6.869                        c1.027,1.346,2.62,2.338,4.816,2.338c1.842,0,3.507-0.852,4.64-2.09V180.781z M72.553,166.224c3.365,0,3.542,2.977,3.542,5.563                        c0,2.621-0.177,5.594-3.542,5.594c-3.4,0-3.577-2.797-3.577-5.594C68.976,169.023,69.153,166.224,72.553,166.224"></path>                    <polygon fill-rule="evenodd" fill="#0099B0" points="98.143,180.781 101.332,180.781 107.068,162.826 103.242,162.826                        99.809,175.398 99.736,175.398 95.664,162.826 93.043,162.826 88.971,175.398 88.9,175.398 85.464,162.826 81.64,162.826                        87.377,180.781 90.564,180.781 94.318,168.208 94.389,168.208 "></polygon>                    <path fill-rule="evenodd" fill="#0099B0" d="M118.186,180.781h3.613v-12.254c0-4.426-3.047-5.914-7.473-5.914                        c-2.691,0-4.676,0.707-6.057,2.621l2.834,2.16c0.637-1.027,1.521-1.383,3.398-1.383c2.586,0,3.684,0.604,3.684,2.303v1.877h-4.994                        c-3.859,0-5.844,2.445-5.844,5.313c0,3.117,2.338,5.49,6.34,5.49c2.443,0,3.684-0.566,4.428-1.807h0.07V180.781z M118.186,174.476                        c0,2.799-1.027,3.117-4.037,3.117c-2.443,0-3.4-1.063-3.4-2.266c0-1.311,0.992-2.162,3.117-2.162h4.32V174.476z"></path>                    <path fill-rule="evenodd" fill="#0099B0" d="M125.768,180.781h3.611v-10.803c0-2.619,1.734-3.754,3.506-3.754                        c0.922,0,1.523,0.248,2.373,0.887l2.621-3.117c-1.098-0.85-2.303-1.381-3.754-1.381c-1.912,0-3.541,0.709-4.674,2.125h-0.072v-1.912                        h-3.611V180.781z"></path>                    <path fill-rule="evenodd" fill="#0099B0" d="M152.748,173.167v-2.977c0-4.639-3.434-7.578-7.4-7.578                        c-3.471,0-7.402,2.266-7.402,9.242c0,7.367,4.285,9.139,7.969,9.139c2.408,0,4.709-0.85,6.48-2.904l-2.621-2.232                        c-1.063,1.1-2.551,1.736-3.93,1.736c-2.48,0-4.285-1.488-4.285-4.426H152.748z M141.559,170.191c0.07-2.727,1.664-4.18,3.789-4.18                        s3.684,1.453,3.789,4.18H141.559z"></path>                    <path fill-rule="evenodd" fill="#0099B0" d="M0,143.425c0,3.895,0.566,5.383,1.947,6.906c0.992,1.098,2.657,2.301,5.455,2.301                        c2.797,0,4.462-1.203,5.454-2.301c1.381-1.523,1.948-3.012,1.948-6.906c0-3.861-0.567-5.348-1.948-6.871                        c-0.992-1.098-2.657-2.303-5.454-2.303c-2.798,0-4.463,1.205-5.455,2.303C0.566,138.078,0,139.564,0,143.425 M11.191,143.46                        c0,2.586-0.212,3.293-0.885,4.25c-0.532,0.744-1.665,1.311-2.904,1.311c-1.24,0-2.373-0.566-2.904-1.311                        c-0.673-0.957-0.886-1.664-0.886-4.285c0-2.586,0.213-3.295,0.886-4.25c0.531-0.744,1.664-1.311,2.904-1.311                        c1.239,0,2.372,0.566,2.904,1.311C10.979,140.13,11.191,140.839,11.191,143.46"></path>                    <path fill-rule="evenodd" fill="#0099B0" d="M49.469,144.806v-2.975c0-4.641-3.435-7.58-7.401-7.58                        c-3.472,0-7.402,2.268-7.402,9.244c0,7.365,4.285,9.137,7.968,9.137c2.409,0,4.71-0.85,6.481-2.904l-2.621-2.23                        c-1.062,1.098-2.549,1.736-3.93,1.736c-2.48,0-4.286-1.488-4.286-4.428H49.469z M38.278,141.832c0.071-2.729,1.665-4.18,3.79-4.18                        s3.683,1.451,3.789,4.18H38.278z"></path>                    <path fill-rule="evenodd" fill="#0099B0" d="M52.552,152.419h3.612v-10.693c0-2.445,1.523-3.861,3.577-3.861                        c2.019,0,3.542,1.416,3.542,3.861v10.693h3.612v-11.934c0-4.074-3.187-6.234-5.985-6.234c-1.912,0-3.542,0.709-4.674,2.125h-0.072                        v-1.912h-3.612V152.419z"></path>                    <path fill-rule="evenodd" fill="#0099B0" d="M76.662,149.41c2.302,2.16,4.994,3.223,7.898,3.223c4.179,0,7.437-2.018,7.437-5.525                        c0-2.867-1.486-5.135-5.206-5.383l-2.975-0.211c-1.806-0.143-2.372-0.922-2.372-1.701c0-1.238,0.779-2.16,3.08-2.16                        c1.949,0,3.402,0.674,4.818,1.664l2.23-2.619c-1.771-1.488-3.895-2.445-7.049-2.445c-3.789,0-6.693,1.877-6.693,5.525                        c0,3.08,2.196,4.852,5.17,5.1l3.188,0.283c1.241,0.105,2.196,0.496,2.196,1.771c0,1.523-1.489,2.301-3.542,2.301                        c-2.408,0-4.108-0.777-5.666-2.301L76.662,149.41z"></path>                    <path fill-rule="evenodd" fill="#0099B0" d="M94.051,143.425c0,3.895,0.568,5.383,1.949,6.906c0.992,1.098,2.656,2.301,5.453,2.301                        c2.799,0,4.463-1.203,5.455-2.301c1.381-1.523,1.947-3.012,1.947-6.906c0-3.861-0.566-5.348-1.947-6.871                        c-0.992-1.098-2.656-2.303-5.455-2.303c-2.797,0-4.461,1.205-5.453,2.303C94.619,138.078,94.051,139.564,94.051,143.425                         M105.242,143.46c0,2.586-0.211,3.293-0.885,4.25c-0.531,0.744-1.664,1.311-2.904,1.311c-1.238,0-2.373-0.566-2.902-1.311                        c-0.674-0.957-0.887-1.664-0.887-4.285c0-2.586,0.213-3.295,0.887-4.25c0.529-0.744,1.664-1.311,2.902-1.311                        c1.24,0,2.373,0.566,2.904,1.311C105.031,140.13,105.242,140.839,105.242,143.46"></path>                    <path fill-rule="evenodd" fill="#0099B0" d="M111.939,146.4c0,4.072,3.188,6.232,6.021,6.232c1.875,0,3.506-0.709,4.639-2.125h0.07                        v1.914h3.611v-17.957h-3.611v10.695c0,2.443-1.523,3.861-3.543,3.861c-2.053,0-3.576-1.418-3.576-3.861v-10.695h-3.611V146.4z"></path>                    <path fill-rule="evenodd" fill="#0099B0" d="M130.242,152.419h3.613v-10.801c0-2.621,1.734-3.754,3.506-3.754                        c0.922,0,1.523,0.248,2.373,0.885l2.621-3.117c-1.1-0.85-2.301-1.381-3.754-1.381c-1.912,0-3.543,0.709-4.676,2.125h-0.07v-1.912                        h-3.613V152.419z"></path>                    <path fill-rule="evenodd" fill="#0099B0" d="M153.859,147.144c-0.885,1.098-2.16,1.877-3.646,1.877                        c-2.939,0-4.676-1.666-4.676-5.563c0-3.93,1.736-5.594,4.676-5.594c1.486,0,2.762,0.779,3.646,1.877l2.656-2.373                        c-1.557-1.807-3.719-3.117-6.445-3.117c-4.143,0-8.145,2.621-8.145,9.207c0,6.555,4.002,9.174,8.145,9.174                        c2.727,0,4.889-1.311,6.445-3.115L153.859,147.144z"></path>                    <path fill-rule="evenodd" fill="#0099B0" d="M172.238,144.806v-2.975c0-4.641-3.438-7.58-7.402-7.58                        c-3.473,0-7.402,2.268-7.402,9.244c0,7.365,4.285,9.137,7.969,9.137c2.408,0,4.711-0.85,6.48-2.904l-2.621-2.23                        c-1.063,1.098-2.549,1.736-3.93,1.736c-2.48,0-4.285-1.488-4.285-4.428H172.238z M161.047,141.832c0.07-2.729,1.664-4.18,3.789-4.18                        s3.682,1.451,3.789,4.18H161.047z"></path>                    <path fill="#0099B0" d="M25.041,149.021c3.4,0,3.577-2.799,3.577-5.561c0-2.799-0.177-5.596-3.577-5.596                        c-3.364,0-3.542,2.975-3.542,5.596C21.499,146.046,21.676,149.021,25.041,149.021 M17.873,180.781v-46.316h3.626v1.877                        c1.134-1.24,2.798-2.09,4.64-2.09c2.195,0,3.79,0.992,4.817,2.338c0.991,1.275,1.274,2.443,1.274,6.871                        c0,4.391-0.283,5.561-1.274,6.834c-1.027,1.346-2.622,2.338-4.817,2.338c-1.842,0-3.294-0.85-4.64-2.125l-0.013,14.23                        c1.204-1.416,2.833-2.125,4.745-2.125c2.798,0,5.985,2.16,5.985,6.232v11.936h-3.612v-10.695c0-2.445-1.523-3.861-3.542-3.861                        c-2.054,0-3.576,1.416-3.576,3.861v10.695H17.873z"></path>                </g>            <path d="M45.380 111.620Q46.040 111.620 46.470 111.510Q46.900 111.400 47.160 111.210Q47.420 111.020 47.520 110.760Q47.620 110.500 47.620 110.180Q47.620 109.500 46.980 109.050Q46.340 108.600 44.780 108.080Q44.100 107.840 43.420 107.530Q42.740 107.220 42.200 106.750Q41.660 106.280 41.320 105.610Q40.980 104.940 40.980 103.980Q40.980 103.020 41.340 102.250Q41.700 101.480 42.360 100.940Q43.020 100.400 43.960 100.110Q44.900 99.820 46.080 99.820Q47.480 99.820 48.500 100.120Q49.520 100.420 50.180 100.780L49.280 103.240Q48.700 102.940 47.990 102.710Q47.280 102.480 46.280 102.480Q45.160 102.480 44.670 102.790Q44.180 103.100 44.180 103.740Q44.180 104.120 44.360 104.380Q44.540 104.640 44.870 104.850Q45.200 105.060 45.630 105.230Q46.060 105.400 46.580 105.580Q47.660 105.980 48.460 106.370Q49.260 106.760 49.790 107.280Q50.320 107.800 50.580 108.500Q50.840 109.200 50.840 110.200Q50.840 112.140 49.480 113.210Q48.120 114.280 45.380 114.280Q44.460 114.280 43.720 114.170Q42.980 114.060 42.410 113.900Q41.840 113.740 41.430 113.560Q41.020 113.380 40.740 113.220L41.620 110.740Q42.240 111.080 43.150 111.350Q44.060 111.620 45.380 111.620Z" fill="#ffffff" id="s" class="on-logo-text"></path><path d="M26.760 59.980Q29.860 59.980 31.520 61.070Q33.180 62.160 33.180 64.640Q33.180 67.140 31.500 68.250Q29.820 69.360 26.700 69.360L25.720 69.360L25.720 74L22.600 74L22.600 60.340Q23.620 60.140 24.760 60.060Q25.900 59.980 26.760 59.980M26.960 62.640Q26.620 62.640 26.290 62.660Q25.960 62.680 25.720 62.700L25.720 66.700L26.700 66.700Q28.320 66.700 29.140 66.260Q29.960 65.820 29.960 64.620Q29.960 64.040 29.750 63.660Q29.540 63.280 29.150 63.050Q28.760 62.820 28.200 62.730Q27.640 62.640 26.960 62.640Z" fill="#ffffff" id="p" class="on-logo-text"></path><path d="M41.600 35L41.600 21.140L50.880 21.140L50.880 23.760L44.720 23.760L44.720 26.660L50.200 26.660L50.200 29.280L44.720 29.280L44.720 35L41.600 35Z" fill="#ffffff" id="f" class="on-logo-text"></path><path d="M82.280 4.140Q82.640 4.800 83.110 5.770Q83.580 6.740 84.090 7.870Q84.600 9 85.100 10.180Q85.600 11.360 86.040 12.400Q86.480 11.360 86.980 10.180Q87.480 9 87.990 7.870Q88.500 6.740 88.970 5.770Q89.440 4.800 89.800 4.140L92.640 4.140Q92.840 5.520 93.010 7.230Q93.180 8.940 93.310 10.790Q93.440 12.640 93.550 14.500Q93.660 16.360 93.740 18L90.700 18Q90.640 15.980 90.540 13.600Q90.440 11.220 90.240 8.800Q89.880 9.640 89.440 10.660Q89 11.680 88.570 12.700Q88.140 13.720 87.740 14.650Q87.340 15.580 87.060 16.240L84.880 16.240Q84.600 15.580 84.200 14.650Q83.800 13.720 83.370 12.700Q82.940 11.680 82.500 10.660Q82.060 9.640 81.700 8.800Q81.500 11.220 81.400 13.600Q81.300 15.980 81.240 18L78.200 18Q78.280 16.360 78.390 14.500Q78.500 12.640 78.630 10.790Q78.760 8.940 78.930 7.230Q79.100 5.520 79.300 4.140L82.280 4.140Z" fill="#ffffff" id="m" class="on-logo-text"></path><path d="M123.220 32.460Q123.440 32.480 123.730 32.490Q124.020 32.500 124.420 32.500Q126.760 32.500 127.890 31.320Q129.020 30.140 129.020 28.060Q129.020 25.880 127.940 24.760Q126.860 23.640 124.520 23.640Q124.200 23.640 123.860 23.650Q123.520 23.660 123.220 23.700L123.220 32.460M132.240 28.060Q132.240 29.860 131.680 31.200Q131.120 32.540 130.090 33.420Q129.060 34.300 127.580 34.740Q126.100 35.180 124.260 35.180Q123.420 35.180 122.300 35.110Q121.180 35.040 120.100 34.820L120.100 21.320Q121.180 21.120 122.350 21.050Q123.520 20.980 124.360 20.980Q126.140 20.980 127.590 21.380Q129.040 21.780 130.080 22.640Q131.120 23.500 131.680 24.840Q132.240 26.180 132.240 28.060Z" fill="#ffffff" id="d" class="on-logo-text"></path><path d="M143.220 74.180Q142.080 74.180 140.950 74.110Q139.820 74.040 138.600 73.780L138.600 60.340Q139.560 60.160 140.700 60.070Q141.840 59.980 142.820 59.980Q144.140 59.980 145.250 60.170Q146.360 60.360 147.160 60.820Q147.960 61.280 148.410 62.030Q148.860 62.780 148.860 63.880Q148.860 65.540 147.260 66.500Q148.580 67 149.060 67.860Q149.540 68.720 149.540 69.800Q149.540 71.980 147.950 73.080Q146.360 74.180 143.220 74.180M141.640 67.960L141.640 71.540Q141.980 71.580 142.380 71.600Q142.780 71.620 143.260 71.620Q144.660 71.620 145.520 71.220Q146.380 70.820 146.380 69.740Q146.380 68.780 145.660 68.370Q144.940 67.960 143.600 67.960L141.640 67.960M141.640 65.580L143.160 65.580Q144.600 65.580 145.220 65.210Q145.840 64.840 145.840 64.020Q145.840 63.180 145.200 62.840Q144.560 62.500 143.320 62.500Q142.920 62.500 142.460 62.510Q142 62.520 141.640 62.560L141.640 65.580Z" fill="#ffffff" id="b" class="on-logo-text"></path><path d="M126.420 114.280Q123.040 114.280 121.270 112.400Q119.500 110.520 119.500 107.060Q119.500 105.340 120.040 103.990Q120.580 102.640 121.520 101.710Q122.460 100.780 123.760 100.300Q125.060 99.820 126.580 99.820Q127.460 99.820 128.180 99.950Q128.900 100.080 129.440 100.250Q129.980 100.420 130.340 100.600Q130.700 100.780 130.860 100.880L129.960 103.400Q129.320 103.060 128.470 102.820Q127.620 102.580 126.540 102.580Q125.820 102.580 125.130 102.820Q124.440 103.060 123.910 103.590Q123.380 104.120 123.060 104.960Q122.740 105.800 122.740 107Q122.740 107.960 122.950 108.790Q123.160 109.620 123.630 110.220Q124.100 110.820 124.860 111.170Q125.620 111.520 126.700 111.520Q127.380 111.520 127.920 111.440Q128.460 111.360 128.880 111.250Q129.300 111.140 129.620 111Q129.940 110.860 130.200 110.740L131.060 113.240Q130.400 113.640 129.200 113.960Q128 114.280 126.420 114.280Z" fill="#ffffff" id="c" class="on-logo-text"></path></svg>